<svg xmlns="http://www.w3.org/2000/svg" xmlns:xlink="http://www.w3.org/1999/xlink" width="500" height="350" viewBox="0 0 500 350"><defs><style>.a{clip-path:url(#c);}.b{fill-rule:evenodd;fill:url(#a);}</style><linearGradient id="a" x2="1" gradientUnits="objectBoundingBox"><stop offset="0" stop-color="#0076dd"/><stop offset="1" stop-color="#e600e9"/></linearGradient><clipPath id="c"><rect width="500" height="350"/></clipPath></defs><g id="b" class="a"><g transform="translate(285 24)"><g transform="translate(-122.849 119.092)"><path d="M25.106,8.228h0q8.786,0,13.578,2.089h0a28.54,28.54,0,0,1,9.032,6.328h0L39.3,25h0q-4.178-5.038-11.735-5.038h0q-7.557,0-9.646,3.625h0q-2.089,3.564,0,6.083h0q2.089,2.519,9.646,3.748h0a31.387,31.387,0,0,1,14.5,5.284h0q6.513,4.362,6.513,14.07h0q0,7.557-6.943,13.025h0A25.639,25.639,0,0,1,25.413,71.2h0q-8.786,0-14.623-2.519h0a31.638,31.638,0,0,1-10.076-6.7h0L9.07,53.571h0q4.239,5.038,14.316,5.9h0q8.356,0,10.445-3.564h0a6.6,6.6,0,0,0,0-7.127h0q-2.089-3.564-10.445-4.424h0A34.6,34.6,0,0,1,9.5,39.747h0Q3.233,35.938,3.233,26.722h0A15.794,15.794,0,0,1,10.36,13.266h0A25.416,25.416,0,0,1,25.106,8.228ZM88.144,71.2h0A30.374,30.374,0,0,1,65.78,62.173h0q-9.093-9.032-9.093-22.549h0A30.719,30.719,0,0,1,65.78,17.26h0A30.374,30.374,0,0,1,88.144,8.228h0a34.038,34.038,0,0,1,23.163,8.417h0L102.89,25.8h0a23.144,23.144,0,0,0-14.746-5.038h0q-8.479.061-13.64,5.345h0A18.25,18.25,0,0,0,69.343,39.5h0q0,8.786,5.222,13.947h0q5.222,5.161,13.7,5.161h0a22.51,22.51,0,0,0,14.623-4.977h0l8.417,9.216h0Q101.723,71.2,88.144,71.2Zm49.337-51.18V33.419h17.634q7.619-.123,7.8-6.943h0q-.184-6.206-7.68-6.451H137.481ZM162.8,43.741h0L178.524,71.2H164.085l-15.114-25.99H137.481V71.2h-12.6V8.228H152.35q22.057,0,22.057,18.125h0Q174.407,39.993,162.8,43.741ZM236.463,8.228H181.9V19.963h20.951V71.2h12.6V19.963h21.013Zm22,11.8V33.419h17.634q7.619-.123,7.8-6.943h0q-.184-6.206-7.68-6.451H258.459Zm25.314,23.716h0L299.5,71.2H285l-15.053-25.99H258.459V71.2h-12.6V8.228h27.464q22.057,0,22.057,18.125h0Q295.385,39.993,283.772,43.741Z" transform="translate(-0.714 -8.228)"/></g><g transform="translate(-245.015 102.923)"><g transform="translate(0 0)"><path class="b" d="M97.28,28.375a11.733,11.733,0,0,0-6.251-9.758L55.871,2.429a17.051,17.051,0,0,0-12.5,0L8.2,18.617A11.731,11.731,0,0,0,1.95,28.375v41.48A11.738,11.738,0,0,0,8.2,79.615L43.37,95.8a17.074,17.074,0,0,0,12.5,0l35.165-16.19a11.734,11.734,0,0,0,6.251-9.76ZM85.214,34.151,58.665,46.37A7.816,7.816,0,0,0,54.5,52.875V81.046a4.6,4.6,0,0,1-4.588,4.588h-.6a4.6,4.6,0,0,1-4.588-4.588V52.873a7.816,7.816,0,0,0-4.166-6.505L14.015,34.153a4.6,4.6,0,0,1-2.248-6.086l.25-.548A4.6,4.6,0,0,1,18.1,25.271L45.446,37.86a11.365,11.365,0,0,0,8.334,0L81.131,25.271a4.6,4.6,0,0,1,6.083,2.248l.25.548A4.6,4.6,0,0,1,85.214,34.151Z" transform="translate(-1.95 -1.242)"/></g></g></g></g></svg>