<svg xmlns="http://www.w3.org/2000/svg" xmlns:xlink="http://www.w3.org/1999/xlink" width="32" height="32" viewBox="0 0 32 32"><defs><style>.a{clip-path:url(#c);}.b{fill-rule:evenodd;fill:url(#a);}</style><linearGradient id="a" x2="1" gradientUnits="objectBoundingBox"><stop offset="0" stop-color="#0076dd"/><stop offset="1" stop-color="#e600e9"/></linearGradient><clipPath id="c"><rect width="32" height="32"/></clipPath></defs><g id="b" class="a"><path class="b" d="M29.828,11.327A2.68,2.68,0,0,0,28.4,9.1L20.369,5.4a3.9,3.9,0,0,0-2.856,0L9.48,9.1a2.68,2.68,0,0,0-1.428,2.229V20.8A2.681,2.681,0,0,0,9.48,23.032l8.033,3.7a3.9,3.9,0,0,0,2.856,0l8.032-3.7A2.68,2.68,0,0,0,29.829,20.8Zm-2.756,1.319-6.064,2.791a1.785,1.785,0,0,0-.952,1.486v6.435a1.051,1.051,0,0,1-1.048,1.048H18.87a1.051,1.051,0,0,1-1.048-1.048V16.923a1.785,1.785,0,0,0-.952-1.486l-6.063-2.79a1.051,1.051,0,0,1-.513-1.39l.057-.125a1.05,1.05,0,0,1,1.39-.513l6.246,2.876a2.6,2.6,0,0,0,1.9,0l6.248-2.876a1.05,1.05,0,0,1,1.39.513l.057.125A1.051,1.051,0,0,1,27.072,12.647Z" transform="translate(-3.136 -0.001)"/></g></svg>